<svg width="227" height="26" fill="none" xmlns="http://www.w3.org/2000/svg">
  <path d="M25.02 25.83h-.05v.13h-.03v-.13h-.05v-.03h.13v.03Zm.19.13h-.03v-.13l-.04.11h-.03l-.04-.1v.12h-.03v-.16h.04l.05.11.04-.1h.04v.15Zm-23.45 0h-.34v-3.9h.34v3.9Zm2.6-3.9c.32 0 .6.05.87.14.26.09.48.22.66.39.18.17.32.37.42.61.1.24.15.51.15.81 0 .3-.05.57-.15.8a1.7 1.7 0 0 1-1.08 1.01c-.26.1-.55.14-.88.14H2.93v-3.9h1.42Zm-1.1.33v3.25h1.09c.28 0 .53-.04.75-.12.22-.08.4-.19.55-.33.15-.14.26-.3.34-.51.07-.2.1-.42.1-.67 0-.25-.03-.47-.1-.67a1.4 1.4 0 0 0-.89-.84 2.28 2.28 0 0 0-.75-.11H3.27Zm7.36-.37a2.05 2.05 0 0 1 .93.21 1.72 1.72 0 0 1 .65.59l-.28.19a1.4 1.4 0 0 0-.54-.49 1.64 1.64 0 0 0-.75-.18c-.24 0-.45.05-.65.13s-.37.19-.52.33c-.15.15-.27.33-.35.53-.08.2-.13.43-.13.68 0 .25.05.47.13.68a1.57 1.57 0 0 0 1.52.98 1.73 1.73 0 0 0 .74-.18 1.5 1.5 0 0 0 .54-.48l.28.2a1.68 1.68 0 0 1-.65.57 1.95 1.95 0 0 1-.91.22c-.29 0-.55-.05-.8-.15a1.91 1.91 0 0 1-1.05-1.04 2.1 2.1 0 0 1-.15-.8c0-.3.05-.57.15-.81a1.87 1.87 0 0 1 1.05-1.04c.25-.1.51-.14.8-.14Zm2.73 1.77a1 1 0 0 1 .67-.46l.27-.03c.16 0 .3.02.45.07.13.05.25.12.34.21.1.1.18.2.23.33.05.14.08.28.08.44v1.6h-.32v-1.5c0-.13-.02-.25-.05-.36a.7.7 0 0 0-.43-.43.99.99 0 0 0-.36-.06.92.92 0 0 0-.34.06.84.84 0 0 0-.54.8v1.5h-.31v-4h.31v1.83Zm4.1-.5a1.17 1.17 0 0 1 .87.37c.12.13.2.27.27.43.06.17.1.35.1.54v.07l-.01.06h-2.2c.02.16.05.3.1.41a.95.95 0 0 0 .92.55c.18 0 .34-.03.49-.1.14-.06.28-.15.4-.27l.16.22c-.08.08-.17.15-.25.2a1.35 1.35 0 0 1-.54.21l-.28.02c-.2 0-.37-.03-.53-.1-.16-.06-.3-.16-.42-.27-.12-.12-.2-.26-.27-.43-.07-.16-.1-.35-.1-.55 0-.2.03-.37.1-.54a1.28 1.28 0 0 1 .68-.7c.16-.08.33-.11.52-.11Zm0 .3a.92.92 0 0 0-.65.25.96.96 0 0 0-.2.29c-.06.1-.1.23-.11.36h1.87a1.16 1.16 0 0 0-.09-.37.94.94 0 0 0-.2-.29.86.86 0 0 0-.62-.25Zm3.17-.3c.2 0 .38.04.54.11.17.07.31.17.43.3l-.2.22a1.05 1.05 0 0 0-1.49-.02 1 1 0 0 0-.22.33c-.05.13-.07.27-.07.42 0 .15.02.3.07.42a.97.97 0 0 0 .54.55c.12.06.25.08.4.08.15 0 .3-.03.43-.09s.24-.14.34-.23l.2.21a1.2 1.2 0 0 1-.42.3 1.39 1.39 0 0 1-1.08 0 1.28 1.28 0 0 1-.7-.7c-.07-.17-.1-.35-.1-.54 0-.2.03-.37.1-.54a1.3 1.3 0 0 1 .7-.71c.15-.07.33-.1.53-.1Zm2.03 1.15h.43l1.1-1.1h.4l-1.25 1.24 1.27 1.38h-.4l-1.12-1.23h-.43v1.23h-.31v-4h.31v2.48ZM4.72 20.05v-1.33c0-.5-.32-.84-.84-.85a.82.82 0 0 0-.75.38.78.78 0 0 0-.7-.38.7.7 0 0 0-.62.32v-.26h-.47v2.12h.47v-1.17c0-.37.2-.57.52-.57.31 0 .47.2.47.56v1.18h.46v-1.17c0-.37.22-.57.52-.57.32 0 .47.2.47.56v1.18h.47Zm6.91-2.12h-.75v-.65h-.47v.65h-.43v.42h.43v.97c0 .5.2.79.74.79.2 0 .43-.06.58-.17l-.14-.4a.85.85 0 0 1-.4.13c-.24 0-.31-.14-.31-.36v-.96h.75v-.42Zm3.95-.06a.63.63 0 0 0-.56.32v-.26h-.46v2.12h.47v-1.19c0-.35.15-.55.45-.55.1 0 .2.02.29.06l.14-.44a1 1 0 0 0-.33-.06Zm-5.96.23a1.6 1.6 0 0 0-.87-.23c-.54 0-.89.26-.89.68 0 .35.26.57.74.63l.21.03c.26.04.38.1.38.23 0 .16-.17.25-.49.25-.32 0-.55-.1-.7-.22l-.22.36c.25.19.57.28.92.28.61 0 .97-.3.97-.7 0-.37-.28-.57-.74-.63l-.22-.03c-.2-.03-.36-.07-.36-.21 0-.16.15-.25.4-.25.27 0 .54.1.67.18l.2-.37Zm12.4-.23a.63.63 0 0 0-.57.32v-.26H21v2.12h.46v-1.19c0-.35.15-.55.45-.55.1 0 .2.02.3.06l.14-.44a1 1 0 0 0-.33-.06ZM16.05 19c0 .65.45 1.12 1.14 1.12.32 0 .53-.07.76-.26l-.22-.37a.94.94 0 0 1-.56.2c-.37-.01-.64-.28-.64-.69 0-.4.27-.68.64-.68.2 0 .39.07.56.2l.22-.38a1.11 1.11 0 0 0-.76-.26c-.69 0-1.14.48-1.14 1.12Zm4.34 0v-1.06h-.47v.26a.8.8 0 0 0-.67-.32c-.6 0-1.06.47-1.06 1.12 0 .65.46 1.12 1.06 1.12a.8.8 0 0 0 .67-.31v.25h.47V19Zm-1.73 0c0-.37.25-.68.65-.68.38 0 .64.3.64.68 0 .39-.26.68-.64.68-.4 0-.65-.3-.65-.68Zm-5.58-1.12c-.63 0-1.06.46-1.06 1.12 0 .68.45 1.12 1.09 1.12.32 0 .61-.08.87-.3l-.23-.34c-.17.14-.4.22-.62.22-.3 0-.57-.14-.63-.52h1.58v-.18c0-.66-.4-1.12-1-1.12Zm-.01.42c.3 0 .49.18.54.51h-1.1c.04-.3.23-.51.56-.51Zm11.61.7v-1.92h-.46v1.12a.8.8 0 0 0-.67-.32c-.6 0-1.07.47-1.07 1.12 0 .65.47 1.12 1.07 1.12a.8.8 0 0 0 .67-.31v.25h.46V19Zm-1.72 0c0-.37.24-.68.64-.68.39 0 .65.3.65.68 0 .39-.26.68-.64.68-.4 0-.65-.3-.65-.68ZM7.33 19v-1.06h-.47v.26a.8.8 0 0 0-.67-.32c-.6 0-1.06.47-1.06 1.12 0 .65.47 1.12 1.06 1.12a.8.8 0 0 0 .67-.31v.25h.47V19ZM5.6 19c0-.37.25-.68.65-.68.38 0 .64.3.64.68 0 .39-.26.68-.64.68-.4 0-.65-.3-.65-.68Zm19.85.76a.22.22 0 0 1 .16.06l.04.06.02.08a.21.21 0 0 1-.13.2.21.21 0 0 1-.17 0 .24.24 0 0 1-.07-.05.23.23 0 0 1-.05-.06.2.2 0 0 1 .05-.23.2.2 0 0 1 .07-.05l.08-.01Zm0 .37a.16.16 0 0 0 .12-.05.17.17 0 0 0 .05-.11c0-.03 0-.05-.02-.07a.17.17 0 0 0-.08-.09.16.16 0 0 0-.13 0 .17.17 0 0 0-.06.04.17.17 0 0 0-.04.12v.06l.04.05a.17.17 0 0 0 .12.05Zm.02-.26c.02 0 .04 0 .05.02.02 0 .02.02.02.04l-.01.04a.08.08 0 0 1-.05.02l.07.08h-.06l-.06-.08h-.02v.08h-.04v-.2h.1Zm-.05.04v.05h.07l.01-.03v-.02h-.08ZM25.17 12.98v-.26h.1v-.05h-.26v.05h.1v.26h.06ZM25.68 12.98v-.31h-.08l-.1.21-.09-.21h-.08v.3h.06v-.23l.09.2h.06l.08-.2v.24h.06ZM12.26 14.53l.19.16a8.01 8.01 0 1 1 0-13.35l-.2.16a8.64 8.64 0 0 0 0 13.03ZM17.92 0c-1.64 0-3.17.5-4.44 1.34l.2.16a8.63 8.63 0 0 1 0 13.03l-.2.16A8.01 8.01 0 1 0 17.91 0Z" fill="#B8B8B8"/>
  <path d="m12.97 1.72-.3.25a7.99 7.99 0 0 0 0 12.09l.3.25.3-.25a7.99 7.99 0 0 0-.3-12.34Z" fill="#B8B8B8"/>
  <path fill-rule="evenodd" clip-rule="evenodd" d="M79.24 17.3c-.07.5-.15 1-.25 1.47-.44-.14-.94-.37-1.66-.32-.42.02-.93.19-.93.57 0 .43.69.68 1.08.86.7.34 1.45.79 1.5 1.7.05.69-.27 1.3-.64 1.65-.98.92-3.15 1.02-4.64.43.1-.5.18-1 .25-1.51.58.24 1.37.57 2.23.47.4-.05.88-.28.86-.68-.01-.5-.93-.8-1.4-1.05-.54-.3-1.15-.79-1.18-1.54-.03-.5.17-.98.43-1.3.76-.95 2.73-1.29 4.35-.75ZM61.62 7.67h1.98l-1.22 7.69H60.4l1.22-7.7ZM54.76 7.67h3.03c1.93 0 2.43 1.11 2.22 2.44a2.58 2.58 0 0 1-2 2.11l1.92 3.14h-2.5L56 12.34l-.48 3.02h-1.98l1.22-7.7Zm1.73 1.53-.3 1.93h.57c.56 0 1.08-.44 1.17-.97.09-.53-.3-.96-.85-.96h-.59ZM70.67 7.67h1.98l-1.22 7.69h-1.98l1.22-7.7ZM74.16 7.67h4.35l-.26 1.67h-2.37l-.21 1.31h2.25l-.27 1.68H75.4l-.21 1.36h2.37l-.27 1.67h-4.35l1.22-7.7ZM49.23 7.67h4.35l-.27 1.67h-2.37l-.2 1.31h2.25l-.27 1.68h-2.25l-.22 1.36h2.37l-.26 1.67H48l1.22-7.7ZM65.1 7.67h4.4l-.26 1.67h-2.42l-.21 1.31h2.2l-.27 1.68h-2.2l-.48 3.03h-1.98l1.22-7.7ZM79.68 7.67h2.58c3.08 0 3.78 2.32 3.54 3.84a4.68 4.68 0 0 1-4.76 3.85h-2.58l1.22-7.7Zm1.71 1.67h.41c1.52 0 2.11 1.07 1.95 2.1-.22 1.38-1.22 2.25-2.52 2.25h-.53l.7-4.35ZM39.93 6.62h3.67l.43 5.59C46.46 8 48.93 3.97 51.41 0h1.2a633.8 633.8 0 0 0-7.74 15.36h-2.7l-.65-6.16c-.16-1.53-.47-2.18-1.58-2.35v-.23Z" fill="#B8B8B8"/>
  <path fill-rule="evenodd" clip-rule="evenodd" d="m41.32 3.44 3.13 1.33.27 3.48h.23l2.84-4.8V3.2h-6.47v.24ZM55.77 20.87c.48 0 .8.43.72.97-.07.53-.52.97-1 .97-.47 0-.79-.44-.71-.97.07-.54.52-.97 1-.97Zm-1.6-3.7h1.29l-.43 3.03c.36-.36.8-.58 1.31-.58 1.03 0 1.7 1 1.52 2.22-.18 1.22-1.15 2.22-2.18 2.22-.5 0-.87-.23-1.12-.62l-.07.48h-1.28l.96-6.75Z" fill="#B8B8B8"/>
  <path fill-rule="evenodd" clip-rule="evenodd" d="M57.97 19.73h1.54l.69 2.15 1.34-2.15h1.48L59.12 26h-1.49l1.65-2.65-1.3-3.62ZM70.67 23.92l1.13-6.75h1.84l-1.12 6.75h-1.85ZM69.13 17.15c-.64 1.5-1.18 3.09-1.84 4.56l-.19-.88v-.01l.03.15c-.14-.46-.38-.9-.69-1.3l-.02-.04-.17-.2-.1-.13a6.7 6.7 0 0 0-1.57-1.24l1.64 5.85h1.98c.93-2.28 1.93-4.49 2.87-6.76h-1.94Z" fill="#B8B8B8"/>
  <path fill-rule="evenodd" clip-rule="evenodd" d="M65.65 17.15h-3.02v.15c1.74.34 3.93 1.8 4.5 3.68l-.64-3.15c-.1-.49-.43-.68-.84-.68ZM85.46 23.94h-1.7c-.1-.32-.13-.72-.24-1.04h-2.3l-.44 1.04h-1.94l2.52-5.78c.11-.26.31-.6.4-.76.12-.23.61-.25.83-.25h1.4l1.47 6.8Zm-2.8-4.92-.94 2.52h1.52l-.58-2.52Z" fill="#B8B8B8"/>
  <path d="M118.42 6.2h3.1C120.33 4.12 117.53 0 110.9 0c-7.08 0-11.06 5.75-11.06 11.5S104.71 23 110.9 23c4.95 0 7.96-2.5 8.85-3.98h38.48c0-1.77-.89-3.1-2.66-3.1h-36.7c-.75 1.48-3.37 3.98-7.97 3.98-5.75 0-7.96-4.42-7.96-8.4 0-3.98 3.1-8.85 7.96-8.85 4.25 0 6.78 2.36 7.52 3.54Z" fill="#B8B8B8"/>
  <path fill-rule="evenodd" clip-rule="evenodd" d="M124 7.08h-5.38a4.22 4.22 0 0 0 3.93 3.4h4.27c.06-.16.06-.39.06-.56 0-1.6-1.27-2.84-2.89-2.84ZM104.7 7.08v7.96h2.6v-4.27h.3l1.44 4.27h1.15l1.45-4.27h.29v4.27h2.6V7.08h-2.6s-.75 0-1.16 1.13c-.92 2.68-1.15 3.42-1.15 3.42s-.12-.4-1.16-3.42c-.4-1.13-1.15-1.13-1.15-1.13h-2.6Zm14.5 3.7v4.26h2.6v-2.27h.98l1.39 2.27h2.65l-1.65-2.48c.79-.32 1.4-.98 1.65-1.79h-7.62Z" fill="#B8B8B8"/>
  <path fill="#B8B8B8" d="M115.32 7.08h2.65v7.96h-2.65z"/>
  <path fill-rule="evenodd" clip-rule="evenodd" d="M150.94 9.73h-3.28a2.58 2.58 0 0 0 2.4 2.09h2.6c.04-.1.04-.25.04-.35 0-.98-.77-1.74-1.76-1.74Z" fill="#B8B8B8"/>
  <path d="M148 14.6v-2.61h4.67c-.21.7-.88 1.22-1.66 1.22h-1.41v1.39H148ZM130.71 9.8l2.18 4.73h-1l-.52-1.15h-2.19l-.47 1.15h-1l2.03-4.74h.97Zm-1.24 2.88h1.59l-.83-1.87-.76 1.87ZM135.84 9.73a3.68 3.68 0 0 1 1.68.4V11c-.3-.17-.58-.3-.84-.37a2.86 2.86 0 0 0-.8-.1c-.35 0-.67.06-.95.2a1.57 1.57 0 0 0-.9 1.43 1.55 1.55 0 0 0 .89 1.44 2.63 2.63 0 0 0 1.72.1c.26-.08.57-.22.94-.41v.86a3.83 3.83 0 0 1-3.21.15 2.31 2.31 0 0 1-1.32-2.1 2.36 2.36 0 0 1 1.36-2.16c.42-.2.9-.31 1.43-.31ZM141 9.73a3.68 3.68 0 0 1 1.7.4V11c-.31-.17-.6-.3-.85-.37a2.86 2.86 0 0 0-.8-.1c-.35 0-.67.06-.95.2a1.57 1.57 0 0 0-.9 1.43 1.55 1.55 0 0 0 .89 1.44 2.63 2.63 0 0 0 1.72.1c.25-.08.56-.22.94-.41v.86a3.85 3.85 0 0 1-3.21.15 2.31 2.31 0 0 1-1.32-2.1 2.37 2.37 0 0 1 1.36-2.16c.42-.2.9-.31 1.42-.31ZM146.84 9.8v.7h-2.23v1.25h2.14v.72h-2.14v1.35h2.28v.71h-3.23V9.8h3.18ZM157.46 9.8v.7h-1.75v4.03h-.95v-4.02H153v-.72h4.45Z" fill="#B8B8B8"/>
  <g clip-path="url(#a)" fill="#B8B8B8">
    <path fill-rule="evenodd" clip-rule="evenodd" d="m179.78 21.97 25.86-8.1L199.38.01l-27.15 1.52 7.55 20.44Zm1.38-13.3c1.13 0 1.7.38 1.7 1.14 0 .42-.16.72-.45.92-.3.2-.72.29-1.29.29h-.37V8.67h.4Zm4.57 2.47c.24-.39.35-.84.35-1.37 0-1-.41-1.75-1.26-2.25-.83-.5-2-.75-3.47-.75h-3.94v8.79h3.36v-2.64h.53a8.9 8.9 0 0 0 1.95-.2c.6-.12 1.1-.32 1.5-.59.43-.26.75-.6.98-.99Zm6.9 4.55c.65 0 1.24-.05 1.76-.15.44-.08.54-.11.9-.21l.2-.06-.01-2.2c-.44.16-.85.29-1.23.37-.4.09-.78.12-1.18.12-.4 0-.76-.04-1.1-.15a2.21 2.21 0 0 1-1.71-2.25c0-.77.23-1.36.71-1.78.48-.41 1.1-.62 1.85-.62.48 0 .92.06 1.33.18.4.13.79.28 1.12.47V7.05l-.15-.05c-.29-.1-.36-.13-.82-.23a8.85 8.85 0 0 0-1.79-.13c-.85 0-1.63.1-2.33.32-.72.22-1.33.53-1.83.92a4.03 4.03 0 0 0-1.61 3.3c0 .68.13 1.3.4 1.87.26.56.64 1.03 1.15 1.42.5.39 1.12.7 1.85.9.73.22 1.56.32 2.49.32Zm7.6-8.92h-3.37v8.78h3.38V6.77Zm-.22-1.36c.4-.33.59-.8.59-1.39 0-.6-.2-1.07-.59-1.4-.4-.34-.88-.51-1.46-.51s-1.07.17-1.46.5c-.39.34-.59.8-.59 1.41 0 .6.2 1.06.6 1.4.39.34.88.5 1.45.5.58 0 1.07-.17 1.46-.5Z"/>
    <path d="M214.5 7.32c0 1.18-.33 2.08-.98 2.72-.66.64-1.57.95-2.75.95h-2.28V3.95h2.45c1.13 0 2.01.28 2.63.86.61.58.92 1.42.92 2.5Zm-2 .06c0-.64-.12-1.12-.38-1.43-.25-.31-.65-.47-1.17-.47h-.55v3.95h.42c.58 0 1-.17 1.28-.5.27-.34.4-.85.4-1.54Zm7.89 1.47a2.07 2.07 0 0 1-1.3 1.96c-.42.19-.91.28-1.47.28a4.39 4.39 0 0 1-2.18-.44v-1.7c.36.19.74.33 1.13.44.4.1.75.15 1.09.15.28 0 .48-.04.62-.14.13-.1.2-.22.2-.38a.4.4 0 0 0-.09-.25.85.85 0 0 0-.25-.21c-.12-.08-.43-.23-.94-.46-.46-.2-.8-.41-1.04-.6a1.9 1.9 0 0 1-.68-1.59c0-.65.24-1.15.71-1.52a3.15 3.15 0 0 1 1.96-.54c.73 0 1.48.17 2.24.5l-.59 1.47a4.25 4.25 0 0 0-1.71-.45c-.25 0-.43.04-.54.13a.4.4 0 0 0-.17.32c0 .14.07.27.22.37.14.11.53.31 1.16.6.61.28 1.04.57 1.27.88.24.31.36.71.36 1.18Zm5.72 0a2.08 2.08 0 0 1-1.3 1.96c-.42.19-.92.28-1.48.28a4.4 4.4 0 0 1-2.18-.44v-1.7c.36.19.75.33 1.14.44.4.1.75.15 1.08.15.28 0 .49-.04.62-.14s.2-.22.2-.38a.4.4 0 0 0-.08-.25.89.89 0 0 0-.26-.21c-.12-.08-.43-.23-.94-.46-.46-.2-.8-.41-1.03-.6a1.9 1.9 0 0 1-.52-.68 2.25 2.25 0 0 1-.17-.9c0-.66.24-1.16.72-1.53a3.15 3.15 0 0 1 1.96-.54c.73 0 1.47.17 2.24.5l-.6 1.47a4.24 4.24 0 0 0-1.7-.45c-.25 0-.43.04-.55.13a.4.4 0 0 0-.17.32c0 .14.08.27.22.37a8 8 0 0 0 1.17.6c.61.28 1.03.57 1.27.88.25.31.36.71.36 1.18Zm-16.62 3.7c-.17 0-.3.06-.4.19a.9.9 0 0 0-.13.53c0 .48.17.71.53.71.15 0 .33-.04.55-.1v.37a1.5 1.5 0 0 1-.59.12c-.3 0-.55-.1-.71-.29-.17-.19-.25-.46-.25-.8 0-.23.04-.42.12-.6.08-.16.2-.29.35-.38a1 1 0 0 1 .54-.13c.21 0 .41.06.63.15l-.15.37a1.42 1.42 0 0 0-.49-.14Zm2.95.72c0 .35-.09.62-.26.81-.18.2-.44.29-.76.29-.33 0-.58-.1-.75-.29-.18-.19-.27-.46-.27-.81 0-.36.09-.63.27-.82.18-.18.43-.28.76-.28s.58.09.75.28c.17.2.26.46.26.82Zm-1.57 0c0 .23.05.42.14.54.1.12.23.18.41.18.37 0 .55-.24.55-.72s-.18-.72-.55-.72c-.18 0-.31.06-.4.18-.1.11-.15.3-.15.54Zm2.92 1.06-.51-1.67h-.01l.02.68v1h-.4V12.2h.62l.5 1.64h.02l.53-1.63h.62v2.13h-.42v-1.18l.02-.5h-.01l-.56 1.68h-.42Zm3.4-1.47c0 .24-.06.41-.21.53a.95.95 0 0 1-.61.19h-.2v.75h-.45V12.2h.68c.26 0 .46.05.6.16.13.12.2.29.2.5Zm-1.02.35h.15c.14 0 .24-.03.31-.09a.3.3 0 0 0 .1-.24c0-.1-.02-.18-.08-.23-.06-.06-.15-.08-.27-.08h-.2v.64h-.01Zm1.43 1.12V12.2h.46v1.76h.87v.38h-1.33Zm4 0-.15-.5h-.78l-.16.5h-.5l.76-2.14h.56l.76 2.14h-.48Zm-.26-.89c-.15-.46-.22-.72-.25-.78l-.03-.15-.28.93h.56Zm2.92.9h-.57l-.93-1.62h-.01l.02.61v1.01h-.4V12.2h.57l.93 1.6h.02c-.02-.27-.02-.47-.02-.58v-1.01h.4v2.12Zm1.37 0h-.45v-1.77h-.59v-.37h1.62v.37h-.58"/>
  </g>
  <defs>
    <clipPath id="a">
      <path fill="#fff" transform="translate(172.23)" d="M0 0h54v22H0z"/>
    </clipPath>
  </defs>
</svg>